
		<svg width="37" height="40" viewBox="0 0 37 40" fill="none" xmlns="http://www.w3.org/2000/svg">
			<path d="M37 7.69231C37 8.10033 36.8376 8.49165 36.5485 8.78016C36.2593 9.06868 35.8672 9.23077 35.4583 9.23077H33.9167V36.9231C33.9167 37.7391 33.5918 38.5218 33.0136 39.0988C32.4353 39.6758 31.6511 40 30.8333 40H6.16667C5.34892 40 4.56466 39.6758 3.98642 39.0988C3.40818 38.5218 3.08333 37.7391 3.08333 36.9231V9.23077H1.54167C1.13279 9.23077 0.740663 9.06868 0.451544 8.78016C0.162425 8.49165 0 8.10033 0 7.69231C0 7.28428 0.162425 6.89297 0.451544 6.60445C0.740663 6.31593 1.13279 6.15385 1.54167 6.15385H35.4583C35.8672 6.15385 36.2593 6.31593 36.5485 6.60445C36.8376 6.89297 37 7.28428 37 7.69231ZM10.7917 3.07692H26.2083C26.6172 3.07692 27.0093 2.91484 27.2985 2.62632C27.5876 2.3378 27.75 1.94649 27.75 1.53846C27.75 1.13044 27.5876 0.739122 27.2985 0.450605C27.0093 0.162087 26.6172 0 26.2083 0H10.7917C10.3828 0 9.99066 0.162087 9.70154 0.450605C9.41243 0.739122 9.25 1.13044 9.25 1.53846C9.25 1.94649 9.41243 2.3378 9.70154 2.62632C9.99066 2.91484 10.3828 3.07692 10.7917 3.07692Z" fill="black" />
		</svg>
