<svg width="41" height="46" viewBox="0 0 41 46" fill="none" xmlns="http://www.w3.org/2000/svg">
<path d="M12.8125 5.11598C12.1329 5.11598 11.4811 5.38515 11.0005 5.86428C10.52 6.34341 10.25 6.99325 10.25 7.67084C10.25 8.34843 10.52 8.99827 11.0005 9.4774C11.4811 9.95653 12.1329 10.2257 12.8125 10.2257C13.4921 10.2257 14.1439 9.95653 14.6245 9.4774C15.105 8.99827 15.375 8.34843 15.375 7.67084C15.375 6.99325 15.105 6.34341 14.6245 5.86428C14.1439 5.38515 13.4921 5.11598 12.8125 5.11598ZM5.56063 5.11598C6.09004 3.62003 7.07183 2.32463 8.37066 1.40834C9.66949 0.492055 11.2214 0 12.8125 0C14.4036 0 15.9555 0.492055 17.2543 1.40834C18.5532 2.32463 19.535 3.62003 20.0644 5.11598H38.4375C39.1171 5.11598 39.7689 5.38515 40.2495 5.86428C40.73 6.34341 41 6.99325 41 7.67084C41 8.34843 40.73 8.99827 40.2495 9.4774C39.7689 9.95653 39.1171 10.2257 38.4375 10.2257H20.0644C19.535 11.7217 18.5532 13.0171 17.2543 13.9333C15.9555 14.8496 14.4036 15.3417 12.8125 15.3417C11.2214 15.3417 9.66949 14.8496 8.37066 13.9333C7.07183 13.0171 6.09004 11.7217 5.56063 10.2257H2.5625C1.88288 10.2257 1.2311 9.95653 0.750539 9.4774C0.269977 8.99827 0 8.34843 0 7.67084C0 6.99325 0.269977 6.34341 0.750539 5.86428C1.2311 5.38515 1.88288 5.11598 2.5625 5.11598H5.56063ZM28.1875 20.4451C27.5079 20.4451 26.8561 20.7143 26.3755 21.1934C25.895 21.6726 25.625 22.3224 25.625 23C25.625 23.6776 25.895 24.3274 26.3755 24.8066C26.8561 25.2857 27.5079 25.5549 28.1875 25.5549C28.8671 25.5549 29.5189 25.2857 29.9995 24.8066C30.48 24.3274 30.75 23.6776 30.75 23C30.75 22.3224 30.48 21.6726 29.9995 21.1934C29.5189 20.7143 28.8671 20.4451 28.1875 20.4451ZM20.9356 20.4451C21.465 18.9492 22.4468 17.6538 23.7457 16.7375C25.0445 15.8212 26.5964 15.3292 28.1875 15.3292C29.7786 15.3292 31.3305 15.8212 32.6293 16.7375C33.9282 17.6538 34.91 18.9492 35.4394 20.4451H38.4375C39.1171 20.4451 39.7689 20.7143 40.2495 21.1934C40.73 21.6726 41 22.3224 41 23C41 23.6776 40.73 24.3274 40.2495 24.8066C39.7689 25.2857 39.1171 25.5549 38.4375 25.5549H35.4394C34.91 27.0508 33.9282 28.3462 32.6293 29.2625C31.3305 30.1788 29.7786 30.6708 28.1875 30.6708C26.5964 30.6708 25.0445 30.1788 23.7457 29.2625C22.4468 28.3462 21.465 27.0508 20.9356 25.5549H2.5625C1.88288 25.5549 1.2311 25.2857 0.750539 24.8066C0.269977 24.3274 0 23.6776 0 23C0 22.3224 0.269977 21.6726 0.750539 21.1934C1.2311 20.7143 1.88288 20.4451 2.5625 20.4451H20.9356ZM12.8125 35.7743C12.1329 35.7743 11.4811 36.0435 11.0005 36.5226C10.52 37.0017 10.25 37.6516 10.25 38.3292C10.25 39.0068 10.52 39.6566 11.0005 40.1357C11.4811 40.6148 12.1329 40.884 12.8125 40.884C13.4921 40.884 14.1439 40.6148 14.6245 40.1357C15.105 39.6566 15.375 39.0068 15.375 38.3292C15.375 37.6516 15.105 37.0017 14.6245 36.5226C14.1439 36.0435 13.4921 35.7743 12.8125 35.7743ZM5.56063 35.7743C6.09004 34.2783 7.07183 32.9829 8.37066 32.0667C9.66949 31.1504 11.2214 30.6583 12.8125 30.6583C14.4036 30.6583 15.9555 31.1504 17.2543 32.0667C18.5532 32.9829 19.535 34.2783 20.0644 35.7743H38.4375C39.1171 35.7743 39.7689 36.0435 40.2495 36.5226C40.73 37.0017 41 37.6516 41 38.3292C41 39.0068 40.73 39.6566 40.2495 40.1357C39.7689 40.6148 39.1171 40.884 38.4375 40.884H20.0644C19.535 42.38 18.5532 43.6754 17.2543 44.5917C15.9555 45.5079 14.4036 46 12.8125 46C11.2214 46 9.66949 45.5079 8.37066 44.5917C7.07183 43.6754 6.09004 42.38 5.56063 40.884H2.5625C1.88288 40.884 1.2311 40.6148 0.750539 40.1357C0.269977 39.6566 0 39.0068 0 38.3292C0 37.6516 0.269977 37.0017 0.750539 36.5226C1.2311 36.0435 1.88288 35.7743 2.5625 35.7743H5.56063Z" fill="white"/>
</svg>
