
		<svg width="21" height="21" viewBox="0 0 21 21" fill="none" xmlns="http://www.w3.org/2000/svg">
			<path d="M0 1.875C0 1.49375 0.15145 1.12812 0.421034 0.858534C0.690617 0.58895 1.05625 0.4375 1.4375 0.4375H4.3125C4.69375 0.4375 5.05938 0.58895 5.32897 0.858534C5.59855 1.12812 5.75 1.49375 5.75 1.875V4.75C5.75 5.13125 5.59855 5.49688 5.32897 5.76647C5.05938 6.03605 4.69375 6.1875 4.3125 6.1875H1.4375C1.05625 6.1875 0.690617 6.03605 0.421034 5.76647C0.15145 5.49688 0 5.13125 0 4.75V1.875ZM7.1875 1.875C7.1875 1.49375 7.33895 1.12812 7.60853 0.858534C7.87812 0.58895 8.24375 0.4375 8.625 0.4375H11.5C11.8812 0.4375 12.2469 0.58895 12.5165 0.858534C12.786 1.12812 12.9375 1.49375 12.9375 1.875V4.75C12.9375 5.13125 12.786 5.49688 12.5165 5.76647C12.2469 6.03605 11.8812 6.1875 11.5 6.1875H8.625C8.24375 6.1875 7.87812 6.03605 7.60853 5.76647C7.33895 5.49688 7.1875 5.13125 7.1875 4.75V1.875ZM14.375 1.875C14.375 1.49375 14.5265 1.12812 14.796 0.858534C15.0656 0.58895 15.4313 0.4375 15.8125 0.4375H18.6875C19.0687 0.4375 19.4344 0.58895 19.704 0.858534C19.9735 1.12812 20.125 1.49375 20.125 1.875V4.75C20.125 5.13125 19.9735 5.49688 19.704 5.76647C19.4344 6.03605 19.0687 6.1875 18.6875 6.1875H15.8125C15.4313 6.1875 15.0656 6.03605 14.796 5.76647C14.5265 5.49688 14.375 5.13125 14.375 4.75V1.875ZM0 9.0625C0 8.68125 0.15145 8.31562 0.421034 8.04603C0.690617 7.77645 1.05625 7.625 1.4375 7.625H4.3125C4.69375 7.625 5.05938 7.77645 5.32897 8.04603C5.59855 8.31562 5.75 8.68125 5.75 9.0625V11.9375C5.75 12.3187 5.59855 12.6844 5.32897 12.954C5.05938 13.2235 4.69375 13.375 4.3125 13.375H1.4375C1.05625 13.375 0.690617 13.2235 0.421034 12.954C0.15145 12.6844 0 12.3187 0 11.9375V9.0625ZM7.1875 9.0625C7.1875 8.68125 7.33895 8.31562 7.60853 8.04603C7.87812 7.77645 8.24375 7.625 8.625 7.625H11.5C11.8812 7.625 12.2469 7.77645 12.5165 8.04603C12.786 8.31562 12.9375 8.68125 12.9375 9.0625V11.9375C12.9375 12.3187 12.786 12.6844 12.5165 12.954C12.2469 13.2235 11.8812 13.375 11.5 13.375H8.625C8.24375 13.375 7.87812 13.2235 7.60853 12.954C7.33895 12.6844 7.1875 12.3187 7.1875 11.9375V9.0625ZM14.375 9.0625C14.375 8.68125 14.5265 8.31562 14.796 8.04603C15.0656 7.77645 15.4313 7.625 15.8125 7.625H18.6875C19.0687 7.625 19.4344 7.77645 19.704 8.04603C19.9735 8.31562 20.125 8.68125 20.125 9.0625V11.9375C20.125 12.3187 19.9735 12.6844 19.704 12.954C19.4344 13.2235 19.0687 13.375 18.6875 13.375H15.8125C15.4313 13.375 15.0656 13.2235 14.796 12.954C14.5265 12.6844 14.375 12.3187 14.375 11.9375V9.0625ZM0 16.25C0 15.8688 0.15145 15.5031 0.421034 15.2335C0.690617 14.964 1.05625 14.8125 1.4375 14.8125H4.3125C4.69375 14.8125 5.05938 14.964 5.32897 15.2335C5.59855 15.5031 5.75 15.8688 5.75 16.25V19.125C5.75 19.5062 5.59855 19.8719 5.32897 20.1415C5.05938 20.411 4.69375 20.5625 4.3125 20.5625H1.4375C1.05625 20.5625 0.690617 20.411 0.421034 20.1415C0.15145 19.8719 0 19.5062 0 19.125V16.25ZM7.1875 16.25C7.1875 15.8688 7.33895 15.5031 7.60853 15.2335C7.87812 14.964 8.24375 14.8125 8.625 14.8125H11.5C11.8812 14.8125 12.2469 14.964 12.5165 15.2335C12.786 15.5031 12.9375 15.8688 12.9375 16.25V19.125C12.9375 19.5062 12.786 19.8719 12.5165 20.1415C12.2469 20.411 11.8812 20.5625 11.5 20.5625H8.625C8.24375 20.5625 7.87812 20.411 7.60853 20.1415C7.33895 19.8719 7.1875 19.5062 7.1875 19.125V16.25ZM14.375 16.25C14.375 15.8688 14.5265 15.5031 14.796 15.2335C15.0656 14.964 15.4313 14.8125 15.8125 14.8125H18.6875C19.0687 14.8125 19.4344 14.964 19.704 15.2335C19.9735 15.5031 20.125 15.8688 20.125 16.25V19.125C20.125 19.5062 19.9735 19.8719 19.704 20.1415C19.4344 20.411 19.0687 20.5625 18.6875 20.5625H15.8125C15.4313 20.5625 15.0656 20.411 14.796 20.1415C14.5265 19.8719 14.375 19.5062 14.375 19.125V16.25Z" fill="gray" />
		</svg>
