
		<svg width="25" height="21" viewBox="0 0 25 21" fill="none" xmlns="http://www.w3.org/2000/svg">
			<path d="M7.35294 0V5C7.35294 5.55228 7.80066 6 8.35294 6H24C24.5523 6 25 5.55228 25 5V0M7.35294 21H24C24.5523 21 25 20.5523 25 20V16C25 15.4477 24.5523 15 24 15H7.35294M7.35294 13.5H24C24.5523 13.5 25 13.0523 25 12.5V8.5C25 7.94772 24.5523 7.5 24 7.5H7.35294M0 6H4.88235C5.43464 6 5.88235 5.55228 5.88235 5V1C5.88235 0.447715 5.43464 0 4.88235 0H0M0 21H4.88235C5.43464 21 5.88235 20.5523 5.88235 20V16C5.88235 15.4477 5.43464 15 4.88235 15H0M0 12.5C0 13.0523 0.447715 13.5 1 13.5H4.88235C5.43464 13.5 5.88235 13.0523 5.88235 12.5V8.5C5.88235 7.94772 5.43464 7.5 4.88235 7.5H1C0.447715 7.5 0 7.94772 0 8.5V12.5Z" fill="gray" />
		</svg>
