
		<svg width="24" height="42" viewBox="0 0 24 42" fill="none" xmlns="http://www.w3.org/2000/svg">
			<path d="M4.75575 41.1689L23.3917 22.5514C23.6129 22.3298 23.7699 22.0897 23.8628 21.8311C23.9557 21.5726 24.0014 21.2955 24 21C24 20.7045 23.9535 20.4274 23.8606 20.1689C23.7677 19.9103 23.6114 19.6702 23.3917 19.4485L4.75575 0.775725C4.23962 0.258575 3.59446 0 2.82027 0C2.04608 0 1.38249 0.277045 0.829491 0.831134C0.276497 1.38522 -6.21268e-07 2.03166 -6.21268e-07 2.77045C-6.21268e-07 3.50923 0.276497 4.15567 0.829491 4.70976L17.0875 21L0.829491 37.2902C0.313363 37.8074 0.055298 38.445 0.055298 39.203C0.055298 39.9609 0.331795 40.6163 0.88479 41.1689C1.43778 41.723 2.08294 42 2.82027 42C3.5576 42 4.20276 41.723 4.75575 41.1689Z" fill="#F0F0F0" />
		</svg>
