<svg width="24" height="42" viewBox="0 0 24 42" fill="none" xmlns="http://www.w3.org/2000/svg">
<path d="M19.2442 41.1689L0.608329 22.5514C0.387131 22.3298 0.23008 22.0897 0.137177 21.8311C0.0442741 21.5726 -0.00144009 21.2955 3.45622e-05 21C3.45622e-05 20.7045 0.0464861 20.4274 0.139389 20.1689C0.232292 19.9103 0.388605 19.6702 0.608329 19.4485L19.2442 0.775725C19.7604 0.258575 20.4055 0 21.1797 0C21.9539 0 22.6175 0.277045 23.1705 0.831134C23.7235 1.38522 24 2.03166 24 2.77045C24 3.50923 23.7235 4.15567 23.1705 4.70976L6.91247 21L23.1705 37.2902C23.6866 37.8074 23.9447 38.445 23.9447 39.203C23.9447 39.9609 23.6682 40.6163 23.1152 41.1689C22.5622 41.723 21.9171 42 21.1797 42C20.4424 42 19.7972 41.723 19.2442 41.1689Z" fill="#F0F0F0"/>
</svg>
