
		<svg width="44" height="44" viewBox="-5 -10 50 50" fill="none" xmlns="http://www.w3.org/2000/svg">
			<path d="M35.0444 38L21.7444 24.7C20.6889 25.5444 19.475 26.213 18.1028 26.7056C16.7306 27.1981 15.2704 27.4444 13.7222 27.4444C9.88704 27.4444 6.64156 26.1159 3.98578 23.4587C1.33 20.8015 0.00140741 17.556 0 13.7222C0 9.88704 1.32859 6.64156 3.98578 3.98578C6.64296 1.33 9.88844 0.00140741 13.7222 0C17.5574 0 20.8029 1.32859 23.4587 3.98578C26.1144 6.64296 27.443 9.88844 27.4444 13.7222C27.4444 15.2704 27.1981 16.7306 26.7056 18.1028C26.213 19.475 25.5444 20.6889 24.7 21.7444L38 35.0444L35.0444 38ZM13.7222 23.2222C16.3611 23.2222 18.6045 22.2983 20.4524 20.4503C22.3004 18.6024 23.2236 16.3597 23.2222 13.7222C23.2222 11.0833 22.2983 8.83993 20.4503 6.992C18.6024 5.14407 16.3597 4.22081 13.7222 4.22222C11.0833 4.22222 8.83993 5.14619 6.992 6.99411C5.14407 8.84204 4.22081 11.0847 4.22222 13.7222C4.22222 16.3611 5.14619 18.6045 6.99411 20.4524C8.84204 22.3004 11.0847 23.2236 13.7222 23.2222Z" fill="white" />
		</svg>
